IMBd : http://www.imdb.com/title/tt0283111
Language : English

Screens :
 
http://www.piczend.com/image/1359074672_vlcsnap-2013-01-24-17h43m05s98.png 
http://www.piczend.com/image/1359074672_vlcsnap-2013-01-24-17h43m09s136.png 
http://www.piczend.com/image/1359074663_vlcsnap-2013-01-24-17h43m19s238.png 
http://www.piczend.com/image/1359074668_vlcsnap-2013-01-24-17h43m26s50.png 
http://www.piczend.com/image/1359074662_vlcsnap-2013-01-24-17h43m31s106.png



Info :

Format : MPEG-4
Format profile : Base Media / Version 2
Codec ID : mp42
File size : 1.21 GiB
Duration : 1h 34mn
Overall bit rate : 1 849 Kbps
Encoded date : UTC 2013-01-23 03:01:06
Tagged date : UTC 2013-01-23 03:24:58

Video
ID : 1
Format : AVC
Format/Info : Advanced Video Codec
Format profile : Main@L3.1
Format settings, CABAC : Yes
Format settings, ReFrames : 1 frame
Codec ID : avc1
Codec ID/Info : Advanced Video Coding
Duration : 1h 34mn
Bit rate mode : Variable
Bit rate : 1 783 Kbps
Width : 720 pixels
Height : 548 pixels
Display aspect ratio : 4:3
Frame rate mode : Variable
Frame rate : 29.970 fps
Minimum frame rate : 29.970 fps
Maximum frame rate : 90.000 fps
Color space : YUV
Chroma subsampling : 4:2:0
Bit depth : 8 bits
Scan type : Progressive
Bits/(Pixel*Frame) : 0.151
Stream size : 1.17 GiB (96%)
Writing library : x264 core
Encoded date : UTC 2013-01-23 03:01:06
Tagged date : UTC 2013-01-23 03:24:50
Color primaries : BT.601 NTSC
Transfer characteristics : BT.709
Matrix coefficients : BT.601

Audio
ID : 2
Format : MPEG Audio
Format version : Version 1
Format profile : Layer 3
Mode : Joint stereo
Mode extension : MS Stereo
Codec ID : 69
Duration : 1h 34mn
Bit rate mode : Constant
Bit rate : 64.0 Kbps
Channel(s) : 2 channels
Sampling rate : 48.0 KHz
Compression mode : Lossy
Stream size : 43.0 MiB (3%)
Writing library : LAME3.98.4
Encoded date : UTC 2013-01-23 03:01:06
Tagged date : UTC 2013-01-23 03:24:38
